# xmcd CD database file
#
# Track frame offsets:
#	150
#	15192
#	30112
#	44592
#	61985
#	76475
#	92227
#	111477
#	127350
#	143390
#	158801
#	172857
#
# Disc length: 2533 seconds
#
# Revision: 0
# Processed by: cddbd v1.5.1PL0 Copyright (c) Steve Scherf et al.
# Submitted via: CDex 1.60beta1
#
DISCID=9109e30c
DTITLE=TWINS - 更好的一天〜such a better day 2
DYEAR=2004
DGENRE=Vocal
TTITLE0=18変
TTITLE1=追女仔
TTITLE2=多謝失恋
TTITLE3=死性不改 (Twins/Boy'z合唱版)
TTITLE4=愛情当入樽
TTITLE5=朋友的愛
TTITLE6=[diu]架
TTITLE7=大紅大紫
TTITLE8=風筝与風
TTITLE9=拍住上
TTITLE10=梨渦浅笑
TTITLE11=我們的紀念冊
EXTD=YEAR: 2004
EXTT0=
EXTT1=
EXTT2=
EXTT3=
EXTT4=
EXTT5=
EXTT6=
EXTT7=
EXTT8=
EXTT9=
EXTT10=
EXTT11=
PLAYORDER=
